<svg width="218" height="72" viewBox="0 0 218 72" fill="none" xmlns="http://www.w3.org/2000/svg">
<g clip-path="url(#clip0)">
<path d="M211.21 43.7158L217.257 47.7475C215.295 50.6386 210.6 55.5989 202.483 55.5989C192.404 55.5989 184.898 47.8008 184.898 37.8805C184.898 27.3241 192.484 20.1624 201.635 20.1624C210.838 20.1624 215.347 27.4829 216.807 31.435L217.602 33.4511L193.89 43.2649C195.693 46.8193 198.505 48.6229 202.483 48.6229C206.462 48.6229 209.22 46.6601 211.21 43.7158V43.7158ZM192.617 37.324L208.451 30.7457C207.576 28.5444 204.977 26.9796 201.873 26.9796C197.921 26.9796 192.431 30.4808 192.617 37.324Z" fill="#FF302F"/>
<path d="M173.466 2.09952H181.105V53.981H173.466V2.0991V2.09952Z" fill="#20B15A"/>
<path d="M161.424 21.5416H168.798V53.0523C168.798 66.1285 161.079 71.5129 151.955 71.5129C143.361 71.5129 138.189 65.7308 136.253 61.0362L143.017 58.2243C144.236 61.1154 147.181 64.5374 151.955 64.5374C157.817 64.5374 161.424 60.9033 161.424 54.1134V51.5672H161.159C159.408 53.6889 156.066 55.5985 151.823 55.5985C142.963 55.5985 134.847 47.88 134.847 37.9337C134.847 27.9338 142.963 20.136 151.823 20.136C156.04 20.136 159.408 22.0193 161.159 24.0881H161.424V21.542V21.5416ZM161.954 37.9337C161.954 31.6739 157.79 27.1116 152.485 27.1116C147.127 27.1116 142.618 31.6739 142.618 37.9337C142.618 44.1135 147.127 48.5961 152.485 48.5961C157.791 48.6229 161.955 44.1135 161.955 37.9337H161.954Z" fill="#3686F7"/>
<path d="M92.9123 37.8009C92.9123 48.0128 84.9553 55.5189 75.1943 55.5189C65.4336 55.5189 57.4762 47.9864 57.4762 37.8009C57.4762 27.5361 65.4336 20.0564 75.1943 20.0564C84.9553 20.0564 92.9123 27.5361 92.9123 37.8009ZM85.1673 37.8009C85.1673 31.4354 80.5519 27.0584 75.1943 27.0584C69.8367 27.0584 65.2212 31.4354 65.2212 37.8009C65.2212 44.1135 69.8367 48.5433 75.1943 48.5433C80.5523 48.5433 85.1673 44.1135 85.1673 37.8009Z" fill="#FF302F"/>
<path d="M131.611 37.8805C131.611 48.0924 123.654 55.5985 113.893 55.5985C104.132 55.5985 96.175 48.092 96.175 37.8805C96.175 27.6157 104.132 20.1624 113.893 20.1624C123.654 20.1624 131.611 27.5893 131.611 37.8805V37.8805ZM123.839 37.8805C123.839 31.515 119.224 27.138 113.866 27.138C108.509 27.138 103.893 31.515 103.893 37.8805C103.893 44.1931 108.509 48.6229 113.866 48.6229C119.251 48.6229 123.839 44.1667 123.839 37.8805Z" fill="#FFBA40"/>
<path d="M28.3528 47.8272C17.239 47.8272 8.53946 38.8619 8.53946 27.7482C8.53946 16.6348 17.239 7.6696 28.3528 7.6696C34.3473 7.6696 38.7235 10.0301 41.9595 13.054L47.2911 7.72282C42.7821 3.39943 36.7611 0.109848 28.3528 0.109848C13.1281 0.110274 0.316772 12.5239 0.316772 27.7482C0.316772 42.9733 13.1281 55.3865 28.3528 55.3865C36.5754 55.3865 42.7821 52.6811 47.636 47.6415C52.6223 42.6548 54.1606 35.6524 54.1606 29.9763C54.1606 28.1991 53.9486 26.3691 53.7097 25.0164H28.3528V32.39H46.4157C45.8852 37.0055 44.4264 40.1618 42.2779 42.3099C39.6785 44.9361 35.5676 47.8272 28.3528 47.8272V47.8272Z" fill="#3686F7"/>
</g>
<defs>
<clipPath id="clip0">
<rect width="218" height="71.5312" fill="white"/>
</clipPath>
</defs>
</svg>
